<svg width="16" height="16" viewBox="0 0 16 16" fill="none" xmlns="http://www.w3.org/2000/svg">
<path d="M13.3008 9.5998V9.0998H12.3008V9.5998H13.3008ZM0.800781 13.5998H0.300781H0.800781ZM6.40078 3.6998H6.90078V2.6998H6.40078V3.6998ZM10.4008 0.299805H9.90078V1.2998H10.4008V0.299805ZM15.2008 0.799805H15.7008V0.299805H15.2008V0.799805ZM14.7008 5.5998V6.0998H15.7008V5.5998H14.7008ZM6.04723 9.24625L5.69367 9.5998L6.40078 10.3069L6.75433 9.95336L6.04723 9.24625ZM12.3008 9.5998V13.5998H13.3008V9.5998H12.3008ZM12.3008 13.5998C12.3008 13.8915 12.1849 14.1713 11.9786 14.3776L12.6857 15.0847C13.0795 14.6909 13.3008 14.1568 13.3008 13.5998H12.3008ZM11.9786 14.3776C11.7723 14.5839 11.4925 14.6998 11.2008 14.6998V15.6998C11.7577 15.6998 12.2919 15.4786 12.6857 15.0847L11.9786 14.3776ZM11.2008 14.6998H2.40078V15.6998H11.2008V14.6998ZM2.40078 14.6998C2.10904 14.6998 1.82925 14.5839 1.62296 14.3776L0.915857 15.0847C1.30968 15.4786 1.84383 15.6998 2.40078 15.6998V14.6998ZM1.62296 14.3776C1.41667 14.1713 1.30078 13.8915 1.30078 13.5998H0.300781C0.300781 14.1568 0.522031 14.6909 0.915857 15.0847L1.62296 14.3776ZM1.30078 13.5998V4.7998H0.300781V13.5998H1.30078ZM1.30078 4.7998C1.30078 4.19595 1.79692 3.6998 2.40078 3.6998V2.6998C1.24464 2.6998 0.300781 3.64366 0.300781 4.7998H1.30078ZM2.40078 3.6998H6.40078V2.6998H2.40078V3.6998ZM10.4008 1.2998C10.4044 1.2998 10.4081 1.2998 10.4118 1.2998C10.4154 1.2998 10.4191 1.2998 10.4228 1.2998C10.4265 1.2998 10.4302 1.2998 10.4338 1.2998C10.4375 1.2998 10.4412 1.2998 10.4449 1.2998C10.4486 1.2998 10.4523 1.2998 10.456 1.2998C10.4597 1.2998 10.4634 1.2998 10.4671 1.2998C10.4708 1.2998 10.4745 1.2998 10.4782 1.2998C10.482 1.2998 10.4857 1.2998 10.4894 1.2998C10.4931 1.2998 10.4969 1.2998 10.5006 1.2998C10.5043 1.2998 10.508 1.2998 10.5118 1.2998C10.5155 1.2998 10.5193 1.2998 10.523 1.2998C10.5268 1.2998 10.5305 1.2998 10.5343 1.2998C10.538 1.2998 10.5418 1.2998 10.5455 1.2998C10.5493 1.2998 10.5531 1.2998 10.5568 1.2998C10.5606 1.2998 10.5644 1.2998 10.5681 1.2998C10.5719 1.2998 10.5757 1.2998 10.5795 1.2998C10.5833 1.2998 10.587 1.2998 10.5908 1.2998C10.5946 1.2998 10.5984 1.2998 10.6022 1.2998C10.606 1.2998 10.6098 1.2998 10.6136 1.2998C10.6174 1.2998 10.6212 1.2998 10.625 1.2998C10.6288 1.2998 10.6326 1.2998 10.6365 1.2998C10.6403 1.2998 10.6441 1.2998 10.6479 1.2998C10.6517 1.2998 10.6556 1.2998 10.6594 1.2998C10.6632 1.2998 10.6671 1.2998 10.6709 1.2998C10.6747 1.2998 10.6786 1.2998 10.6824 1.2998C10.6863 1.2998 10.6901 1.2998 10.694 1.2998C10.6978 1.2998 10.7017 1.2998 10.7055 1.2998C10.7094 1.2998 10.7132 1.2998 10.7171 1.2998C10.721 1.2998 10.7248 1.2998 10.7287 1.2998C10.7326 1.2998 10.7364 1.2998 10.7403 1.2998C10.7442 1.2998 10.7481 1.2998 10.7519 1.2998C10.7558 1.2998 10.7597 1.2998 10.7636 1.2998C10.7675 1.2998 10.7714 1.2998 10.7753 1.2998C10.7792 1.2998 10.7831 1.2998 10.787 1.2998C10.7909 1.2998 10.7948 1.2998 10.7987 1.2998C10.8026 1.2998 10.8065 1.2998 10.8104 1.2998C10.8143 1.2998 10.8182 1.2998 10.8221 1.2998C10.8261 1.2998 10.83 1.2998 10.8339 1.2998C10.8378 1.2998 10.8417 1.2998 10.8457 1.2998C10.8496 1.2998 10.8535 1.2998 10.8575 1.2998C10.8614 1.2998 10.8653 1.2998 10.8693 1.2998C10.8732 1.2998 10.8772 1.2998 10.8811 1.2998C10.8851 1.2998 10.889 1.2998 10.893 1.2998C10.8969 1.2998 10.9009 1.2998 10.9048 1.2998C10.9088 1.2998 10.9127 1.2998 10.9167 1.2998C10.9207 1.2998 10.9246 1.2998 10.9286 1.2998C10.9326 1.2998 10.9365 1.2998 10.9405 1.2998C10.9445 1.2998 10.9484 1.2998 10.9524 1.2998C10.9564 1.2998 10.9604 1.2998 10.9644 1.2998C10.9683 1.2998 10.9723 1.2998 10.9763 1.2998C10.9803 1.2998 10.9843 1.2998 10.9883 1.2998C10.9923 1.2998 10.9963 1.2998 11.0003 1.2998C11.0043 1.2998 11.0083 1.2998 11.0123 1.2998C11.0163 1.2998 11.0203 1.2998 11.0243 1.2998C11.0283 1.2998 11.0323 1.2998 11.0363 1.2998C11.0403 1.2998 11.0444 1.2998 11.0484 1.2998C11.0524 1.2998 11.0564 1.2998 11.0604 1.2998C11.0645 1.2998 11.0685 1.2998 11.0725 1.2998C11.0765 1.2998 11.0806 1.2998 11.0846 1.2998C11.0886 1.2998 11.0927 1.2998 11.0967 1.2998C11.1007 1.2998 11.1048 1.2998 11.1088 1.2998C11.1128 1.2998 11.1169 1.2998 11.1209 1.2998C11.125 1.2998 11.129 1.2998 11.1331 1.2998C11.1371 1.2998 11.1412 1.2998 11.1452 1.2998C11.1493 1.2998 11.1533 1.2998 11.1574 1.2998C11.1614 1.2998 11.1655 1.2998 11.1696 1.2998C11.1736 1.2998 11.1777 1.2998 11.1818 1.2998C11.1858 1.2998 11.1899 1.2998 11.194 1.2998C11.198 1.2998 11.2021 1.2998 11.2062 1.2998C11.2102 1.2998 11.2143 1.2998 11.2184 1.2998C11.2225 1.2998 11.2266 1.2998 11.2306 1.2998C11.2347 1.2998 11.2388 1.2998 11.2429 1.2998C11.247 1.2998 11.2511 1.2998 11.2551 1.2998C11.2592 1.2998 11.2633 1.2998 11.2674 1.2998C11.2715 1.2998 11.2756 1.2998 11.2797 1.2998C11.2838 1.2998 11.2879 1.2998 11.292 1.2998C11.2961 1.2998 11.3002 1.2998 11.3043 1.2998C11.3084 1.2998 11.3125 1.2998 11.3166 1.2998C11.3207 1.2998 11.3248 1.2998 11.3289 1.2998C11.333 1.2998 11.3372 1.2998 11.3413 1.2998C11.3454 1.2998 11.3495 1.2998 11.3536 1.2998C11.3577 1.2998 11.3618 1.2998 11.366 1.2998C11.3701 1.2998 11.3742 1.2998 11.3783 1.2998C11.3824 1.2998 11.3866 1.2998 11.3907 1.2998C11.3948 1.2998 11.399 1.2998 11.4031 1.2998C11.4072 1.2998 11.4113 1.2998 11.4155 1.2998C11.4196 1.2998 11.4237 1.2998 11.4279 1.2998C11.432 1.2998 11.4361 1.2998 11.4403 1.2998C11.4444 1.2998 11.4486 1.2998 11.4527 1.2998C11.4568 1.2998 11.461 1.2998 11.4651 1.2998C11.4693 1.2998 11.4734 1.2998 11.4776 1.2998C11.4817 1.2998 11.4858 1.2998 11.49 1.2998C11.4941 1.2998 11.4983 1.2998 11.5024 1.2998C11.5066 1.2998 11.5107 1.2998 11.5149 1.2998C11.519 1.2998 11.5232 1.2998 11.5274 1.2998C11.5315 1.2998 11.5357 1.2998 11.5398 1.2998C11.544 1.2998 11.5481 1.2998 11.5523 1.2998C11.5565 1.2998 11.5606 1.2998 11.5648 1.2998C11.569 1.2998 11.5731 1.2998 11.5773 1.2998C11.5814 1.2998 11.5856 1.2998 11.5898 1.2998C11.5939 1.2998 11.5981 1.2998 11.6023 1.2998C11.6064 1.2998 11.6106 1.2998 11.6148 1.2998C11.619 1.2998 11.6231 1.2998 11.6273 1.2998C11.6315 1.2998 11.6357 1.2998 11.6398 1.2998C11.644 1.2998 11.6482 1.2998 11.6524 1.2998C11.6565 1.2998 11.6607 1.2998 11.6649 1.2998C11.6691 1.2998 11.6732 1.2998 11.6774 1.2998C11.6816 1.2998 11.6858 1.2998 11.69 1.2998C11.6941 1.2998 11.6983 1.2998 11.7025 1.2998C11.7067 1.2998 11.7109 1.2998 11.7151 1.2998C11.7192 1.2998 11.7234 1.2998 11.7276 1.2998C11.7318 1.2998 11.736 1.2998 11.7402 1.2998C11.7444 1.2998 11.7486 1.2998 11.7527 1.2998C11.7569 1.2998 11.7611 1.2998 11.7653 1.2998C11.7695 1.2998 11.7737 1.2998 11.7779 1.2998C11.7821 1.2998 11.7863 1.2998 11.7905 1.2998C11.7947 1.2998 11.7988 1.2998 11.803 1.2998C11.8072 1.2998 11.8114 1.2998 11.8156 1.2998C11.8198 1.2998 11.824 1.2998 11.8282 1.2998C11.8324 1.2998 11.8366 1.2998 11.8408 1.2998C11.845 1.2998 11.8492 1.2998 11.8534 1.2998C11.8576 1.2998 11.8618 1.2998 11.866 1.2998C11.8702 1.2998 11.8744 1.2998 11.8786 1.2998C11.8828 1.2998 11.887 1.2998 11.8912 1.2998C11.8954 1.2998 11.8996 1.2998 11.9038 1.2998C11.908 1.2998 11.9122 1.2998 11.9164 1.2998C11.9206 1.2998 11.9248 1.2998 11.929 1.2998C11.9332 1.2998 11.9374 1.2998 11.9416 1.2998C11.9458 1.2998 11.95 1.2998 11.9542 1.2998C11.9584 1.2998 11.9626 1.2998 11.9668 1.2998C11.971 1.2998 11.9752 1.2998 11.9794 1.2998C11.9836 1.2998 11.9878 1.2998 11.992 1.2998C11.9962 1.2998 12.0004 1.2998 12.0046 1.2998C12.0088 1.2998 12.013 1.2998 12.0172 1.2998C12.0215 1.2998 12.0257 1.2998 12.0299 1.2998C12.0341 1.2998 12.0383 1.2998 12.0425 1.2998C12.0467 1.2998 12.0509 1.2998 12.0551 1.2998C12.0593 1.2998 12.0635 1.2998 12.0677 1.2998C12.0719 1.2998 12.0761 1.2998 12.0803 1.2998C12.0845 1.2998 12.0887 1.2998 12.0929 1.2998C12.0971 1.2998 12.1013 1.2998 12.1055 1.2998C12.1097 1.2998 12.1139 1.2998 12.1181 1.2998C12.1223 1.2998 12.1265 1.2998 12.1307 1.2998C12.1349 1.2998 12.1391 1.2998 12.1433 1.2998C12.1475 1.2998 12.1517 1.2998 12.1559 1.2998C12.1601 1.2998 12.1643 1.2998 12.1685 1.2998C12.1727 1.2998 12.1769 1.2998 12.1811 1.2998C12.1853 1.2998 12.1895 1.2998 12.1937 1.2998C12.1979 1.2998 12.2021 1.2998 12.2063 1.2998C12.2105 1.2998 12.2147 1.2998 12.2189 1.2998C12.2231 1.2998 12.2273 1.2998 12.2315 1.2998C12.2357 1.2998 12.2399 1.2998 12.2441 1.2998C12.2483 1.2998 12.2525 1.2998 12.2567 1.2998C12.2609 1.2998 12.2651 1.2998 12.2693 1.2998C12.2735 1.2998 12.2777 1.2998 12.2819 1.2998C12.286 1.2998 12.2902 1.2998 12.2944 1.2998C12.2986 1.2998 12.3028 1.2998 12.307 1.2998C12.3112 1.2998 12.3154 1.2998 12.3196 1.2998C12.3238 1.2998 12.3279 1.2998 12.3321 1.2998C12.3363 1.2998 12.3405 1.2998 12.3447 1.2998C12.3489 1.2998 12.3531 1.2998 12.3572 1.2998C12.3614 1.2998 12.3656 1.2998 12.3698 1.2998C12.374 1.2998 12.3782 1.2998 12.3823 1.2998C12.3865 1.2998 12.3907 1.2998 12.3949 1.2998C12.3991 1.2998 12.4032 1.2998 12.4074 1.2998C12.4116 1.2998 12.4158 1.2998 12.4199 1.2998C12.4241 1.2998 12.4283 1.2998 12.4325 1.2998C12.4366 1.2998 12.4408 1.2998 12.445 1.2998C12.4492 1.2998 12.4533 1.2998 12.4575 1.2998C12.4617 1.2998 12.4658 1.2998 12.47 1.2998C12.4742 1.2998 12.4783 1.2998 12.4825 1.2998C12.4867 1.2998 12.4908 1.2998 12.495 1.2998C12.4992 1.2998 12.5033 1.2998 12.5075 1.2998C12.5117 1.2998 12.5158 1.2998 12.52 1.2998C12.5241 1.2998 12.5283 1.2998 12.5324 1.2998C12.5366 1.2998 12.5408 1.2998 12.5449 1.2998C12.5491 1.2998 12.5532 1.2998 12.5574 1.2998C12.5615 1.2998 12.5657 1.2998 12.5698 1.2998C12.574 1.2998 12.5781 1.2998 12.5823 1.2998C12.5864 1.2998 12.5906 1.2998 12.5947 1.2998C12.5989 1.2998 12.603 1.2998 12.6071 1.2998C12.6113 1.2998 12.6154 1.2998 12.6196 1.2998C12.6237 1.2998 12.6278 1.2998 12.632 1.2998C12.6361 1.2998 12.6402 1.2998 12.6444 1.2998C12.6485 1.2998 12.6526 1.2998 12.6568 1.2998C12.6609 1.2998 12.665 1.2998 12.6692 1.2998C12.6733 1.2998 12.6774 1.2998 12.6815 1.2998C12.6857 1.2998 12.6898 1.2998 12.6939 1.2998C12.698 1.2998 12.7022 1.2998 12.7063 1.2998C12.7104 1.2998 12.7145 1.2998 12.7186 1.2998C12.7227 1.2998 12.7269 1.2998 12.731 1.2998C12.7351 1.2998 12.7392 1.2998 12.7433 1.2998C12.7474 1.2998 12.7515 1.2998 12.7556 1.2998C12.7597 1.2998 12.7638 1.2998 12.7679 1.2998C12.772 1.2998 12.7761 1.2998 12.7802 1.2998C12.7843 1.2998 12.7884 1.2998 12.7925 1.2998C12.7966 1.2998 12.8007 1.2998 12.8048 1.2998C12.8089 1.2998 12.813 1.2998 12.8171 1.2998C12.8211 1.2998 12.8252 1.2998 12.8293 1.2998C12.8334 1.2998 12.8375 1.2998 12.8416 1.2998C12.8456 1.2998 12.8497 1.2998 12.8538 1.2998C12.8579 1.2998 12.8619 1.2998 12.866 1.2998C12.8701 1.2998 12.8742 1.2998 12.8782 1.2998C12.8823 1.2998 12.8864 1.2998 12.8904 1.2998C12.8945 1.2998 12.8985 1.2998 12.9026 1.2998C12.9067 1.2998 12.9107 1.2998 12.9148 1.2998C12.9188 1.2998 12.9229 1.2998 12.9269 1.2998C12.931 1.2998 12.935 1.2998 12.9391 1.2998C12.9431 1.2998 12.9472 1.2998 12.9512 1.2998C12.9553 1.2998 12.9593 1.2998 12.9633 1.2998C12.9674 1.2998 12.9714 1.2998 12.9755 1.2998C12.9795 1.2998 12.9835 1.2998 12.9876 1.2998C12.9916 1.2998 12.9956 1.2998 12.9996 1.2998C13.0037 1.2998 13.0077 1.2998 13.0117 1.2998C13.0157 1.2998 13.0197 1.2998 13.0238 1.2998C13.0278 1.2998 13.0318 1.2998 13.0358 1.2998C13.0398 1.2998 13.0438 1.2998 13.0478 1.2998C13.0518 1.2998 13.0558 1.2998 13.0598 1.2998C13.0638 1.2998 13.0678 1.2998 13.0718 1.2998C13.0758 1.2998 13.0798 1.2998 13.0838 1.2998C13.0878 1.2998 13.0918 1.2998 13.0958 1.2998C13.0998 1.2998 13.1037 1.2998 13.1077 1.2998C13.1117 1.2998 13.1157 1.2998 13.1197 1.2998C13.1236 1.2998 13.1276 1.2998 13.1316 1.2998C13.1355 1.2998 13.1395 1.2998 13.1435 1.2998C13.1474 1.2998 13.1514 1.2998 13.1554 1.2998C13.1593 1.2998 13.1633 1.2998 13.1672 1.2998C13.1712 1.2998 13.1751 1.2998 13.1791 1.2998C13.183 1.2998 13.187 1.2998 13.1909 1.2998C13.1949 1.2998 13.1988 1.2998 13.2028 1.2998C13.2067 1.2998 13.2106 1.2998 13.2146 1.2998C13.2185 1.2998 13.2224 1.2998 13.2264 1.2998C13.2303 1.2998 13.2342 1.2998 13.2381 1.2998C13.242 1.2998 13.246 1.2998 13.2499 1.2998C13.2538 1.2998 13.2577 1.2998 13.2616 1.2998C13.2655 1.2998 13.2694 1.2998 13.2733 1.2998C13.2772 1.2998 13.2811 1.2998 13.285 1.2998C13.2889 1.2998 13.2928 1.2998 13.2967 1.2998C13.3006 1.2998 13.3045 1.2998 13.3084 1.2998C13.3123 1.2998 13.3162 1.2998 13.32 1.2998C13.3239 1.2998 13.3278 1.2998 13.3317 1.2998C13.3355 1.2998 13.3394 1.2998 13.3433 1.2998C13.3471 1.2998 13.351 1.2998 13.3549 1.2998C13.3587 1.2998 13.3626 1.2998 13.3664 1.2998C13.3703 1.2998 13.3741 1.2998 13.378 1.2998C13.3818 1.2998 13.3857 1.2998 13.3895 1.2998C13.3934 1.2998 13.3972 1.2998 13.401 1.2998C13.4049 1.2998 13.4087 1.2998 13.4125 1.2998C13.4163 1.2998 13.4202 1.2998 13.424 1.2998C13.4278 1.2998 13.4316 1.2998 13.4354 1.2998C13.4393 1.2998 13.4431 1.2998 13.4469 1.2998C13.4507 1.2998 13.4545 1.2998 13.4583 1.2998C13.4621 1.2998 13.4659 1.2998 13.4697 1.2998C13.4735 1.2998 13.4773 1.2998 13.481 1.2998C13.4848 1.2998 13.4886 1.2998 13.4924 1.2998C13.4962 1.2998 13.5 1.2998 13.5037 1.2998C13.5075 1.2998 13.5113 1.2998 13.515 1.2998C13.5188 1.2998 13.5226 1.2998 13.5263 1.2998C13.5301 1.2998 13.5338 1.2998 13.5376 1.2998C13.5413 1.2998 13.5451 1.2998 13.5488 1.2998C13.5526 1.2998 13.5563 1.2998 13.56 1.2998C13.5638 1.2998 13.5675 1.2998 13.5712 1.2998C13.575 1.2998 13.5787 1.2998 13.5824 1.2998C13.5861 1.2998 13.5898 1.2998 13.5936 1.2998C13.5973 1.2998 13.601 1.2998 13.6047 1.2998C13.6084 1.2998 13.6121 1.2998 13.6158 1.2998C13.6195 1.2998 13.6232 1.2998 13.6269 1.2998C13.6306 1.2998 13.6342 1.2998 13.6379 1.2998C13.6416 1.2998 13.6453 1.2998 13.649 1.2998C13.6526 1.2998 13.6563 1.2998 13.66 1.2998C13.6636 1.2998 13.6673 1.2998 13.671 1.2998C13.6746 1.2998 13.6783 1.2998 13.6819 1.2998C13.6856 1.2998 13.6892 1.2998 13.6929 1.2998C13.6965 1.2998 13.7001 1.2998 13.7038 1.2998C13.7074 1.2998 13.711 1.2998 13.7147 1.2998C13.7183 1.2998 13.7219 1.2998 13.7255 1.2998C13.7291 1.2998 13.7328 1.2998 13.7364 1.2998C13.74 1.2998 13.7436 1.2998 13.7472 1.2998C13.7508 1.2998 13.7544 1.2998 13.758 1.2998C13.7616 1.2998 13.7652 1.2998 13.7687 1.2998C13.7723 1.2998 13.7759 1.2998 13.7795 1.2998C13.783 1.2998 13.7866 1.2998 13.7902 1.2998C13.7938 1.2998 13.7973 1.2998 13.8009 1.2998C13.8044 1.2998 13.808 1.2998 13.8115 1.2998C13.8151 1.2998 13.8186 1.2998 13.8222 1.2998C13.8257 1.2998 13.8292 1.2998 13.8328 1.2998C13.8363 1.2998 13.8398 1.2998 13.8433 1.2998C13.8469 1.2998 13.8504 1.2998 13.8539 1.2998C13.8574 1.2998 13.8609 1.2998 13.8644 1.2998C13.8679 1.2998 13.8714 1.2998 13.8749 1.2998C13.8784 1.2998 13.8819 1.2998 13.8854 1.2998C13.8889 1.2998 13.8924 1.2998 13.8958 1.2998C13.8993 1.2998 13.9028 1.2998 13.9063 1.2998C13.9097 1.2998 13.9132 1.2998 13.9166 1.2998C13.9201 1.2998 13.9236 1.2998 13.927 1.2998C13.9304 1.2998 13.9339 1.2998 13.9373 1.2998C13.9408 1.2998 13.9442 1.2998 13.9476 1.2998C13.9511 1.2998 13.9545 1.2998 13.9579 1.2998C13.9613 1.2998 13.9647 1.2998 13.9682 1.2998C13.9716 1.2998 13.975 1.2998 13.9784 1.2998C13.9818 1.2998 13.9852 1.2998 13.9886 1.2998C13.9919 1.2998 13.9953 1.2998 13.9987 1.2998C14.0021 1.2998 14.0055 1.2998 14.0088 1.2998C14.0122 1.2998 14.0156 1.2998 14.0189 1.2998C14.0223 1.2998 14.0256 1.2998 14.029 1.2998C14.0324 1.2998 14.0357 1.2998 14.039 1.2998C14.0424 1.2998 14.0457 1.2998 14.049 1.2998C14.0524 1.2998 14.0557 1.2998 14.059 1.2998C14.0623 1.2998 14.0657 1.2998 14.069 1.2998C14.0723 1.2998 14.0756 1.2998 14.0789 1.2998C14.0822 1.2998 14.0855 1.2998 14.0888 1.2998C14.0921 1.2998 14.0953 1.2998 14.0986 1.2998C14.1019 1.2998 14.1052 1.2998 14.1084 1.2998C14.1117 1.2998 14.115 1.2998 14.1182 1.2998C14.1215 1.2998 14.1247 1.2998 14.128 1.2998C14.1312 1.2998 14.1345 1.2998 14.1377 1.2998C14.1409 1.2998 14.1442 1.2998 14.1474 1.2998C14.1506 1.2998 14.1538 1.2998 14.1571 1.2998C14.1603 1.2998 14.1635 1.2998 14.1667 1.2998C14.1699 1.2998 14.1731 1.2998 14.1763 1.2998C14.1795 1.2998 14.1827 1.2998 14.1859 1.2998C14.189 1.2998 14.1922 1.2998 14.1954 1.2998C14.1986 1.2998 14.2017 1.2998 14.2049 1.2998C14.208 1.2998 14.2112 1.2998 14.2143 1.2998C14.2175 1.2998 14.2206 1.2998 14.2238 1.2998C14.2269 1.2998 14.23 1.2998 14.2332 1.2998C14.2363 1.2998 14.2394 1.2998 14.2425 1.2998C14.2456 1.2998 14.2488 1.2998 14.2519 1.2998C14.255 1.2998 14.2581 1.2998 14.2612 1.2998C14.2642 1.2998 14.2673 1.2998 14.2704 1.2998C14.2735 1.2998 14.2766 1.2998 14.2796 1.2998C14.2827 1.2998 14.2858 1.2998 14.2888 1.2998C14.2919 1.2998 14.2949 1.2998 14.298 1.2998C14.301 1.2998 14.3041 1.2998 14.3071 1.2998C14.3101 1.2998 14.3132 1.2998 14.3162 1.2998C14.3192 1.2998 14.3222 1.2998 14.3252 1.2998C14.3282 1.2998 14.3313 1.2998 14.3343 1.2998C14.3373 1.2998 14.3402 1.2998 14.3432 1.2998C14.3462 1.2998 14.3492 1.2998 14.3522 1.2998C14.3551 1.2998 14.3581 1.2998 14.3611 1.2998C14.364 1.2998 14.367 1.2998 14.3699 1.2998C14.3729 1.2998 14.3758 1.2998 14.3788 1.2998C14.3817 1.2998 14.3846 1.2998 14.3876 1.2998C14.3905 1.2998 14.3934 1.2998 14.3963 1.2998C14.3992 1.2998 14.4022 1.2998 14.4051 1.2998C14.408 1.2998 14.4109 1.2998 14.4137 1.2998C14.4166 1.2998 14.4195 1.2998 14.4224 1.2998C14.4253 1.2998 14.4281 1.2998 14.431 1.2998C14.4339 1.2998 14.4367 1.2998 14.4396 1.2998C14.4424 1.2998 14.4453 1.2998 14.4481 1.2998C14.4509 1.2998 14.4538 1.2998 14.4566 1.2998C14.4594 1.2998 14.4622 1.2998 14.4651 1.2998C14.4679 1.2998 14.4707 1.2998 14.4735 1.2998C14.4763 1.2998 14.4791 1.2998 14.4819 1.2998C14.4846 1.2998 14.4874 1.2998 14.4902 1.2998C14.493 1.2998 14.4957 1.2998 14.4985 1.2998C14.5013 1.2998 14.504 1.2998 14.5068 1.2998C14.5095 1.2998 14.5123 1.2998 14.515 1.2998C14.5177 1.2998 14.5204 1.2998 14.5232 1.2998C14.5259 1.2998 14.5286 1.2998 14.5313 1.2998C14.534 1.2998 14.5367 1.2998 14.5394 1.2998C14.5421 1.2998 14.5448 1.2998 14.5475 1.2998C14.5502 1.2998 14.5528 1.2998 14.5555 1.2998C14.5582 1.2998 14.5608 1.2998 14.5635 1.2998C14.5661 1.2998 14.5688 1.2998 14.5714 1.2998C14.5741 1.2998 14.5767 1.2998 14.5793 1.2998C14.582 1.2998 14.5846 1.2998 14.5872 1.2998C14.5898 1.2998 14.5924 1.2998 14.595 1.2998C14.5976 1.2998 14.6002 1.2998 14.6028 1.2998C14.6054 1.2998 14.608 1.2998 14.6105 1.2998C14.6131 1.2998 14.6157 1.2998 14.6182 1.2998C14.6208 1.2998 14.6233 1.2998 14.6259 1.2998C14.6284 1.2998 14.631 1.2998 14.6335 1.2998C14.636 1.2998 14.6385 1.2998 14.6411 1.2998C14.6436 1.2998 14.6461 1.2998 14.6486 1.2998C14.6511 1.2998 14.6536 1.2998 14.6561 1.2998C14.6586 1.2998 14.661 1.2998 14.6635 1.2998C14.666 1.2998 14.6684 1.2998 14.6709 1.2998C14.6734 1.2998 14.6758 1.2998 14.6783 1.2998C14.6807 1.2998 14.6831 1.2998 14.6856 1.2998C14.688 1.2998 14.6904 1.2998 14.6928 1.2998C14.6953 1.2998 14.6977 1.2998 14.7001 1.2998C14.7025 1.2998 14.7049 1.2998 14.7072 1.2998C14.7096 1.2998 14.712 1.2998 14.7144 1.2998C14.7168 1.2998 14.7191 1.2998 14.7215 1.2998C14.7238 1.2998 14.7262 1.2998 14.7285 1.2998C14.7309 1.2998 14.7332 1.2998 14.7355 1.2998C14.7379 1.2998 14.7402 1.2998 14.7425 1.2998C14.7448 1.2998 14.7471 1.2998 14.7494 1.2998C14.7517 1.2998 14.754 1.2998 14.7563 1.2998C14.7586 1.2998 14.7608 1.2998 14.7631 1.2998C14.7654 1.2998 14.7676 1.2998 14.7699 1.2998C14.7721 1.2998 14.7744 1.2998 14.7766 1.2998C14.7788 1.2998 14.7811 1.2998 14.7833 1.2998C14.7855 1.2998 14.7877 1.2998 14.7899 1.2998C14.7921 1.2998 14.7943 1.2998 14.7965 1.2998C14.7987 1.2998 14.8009 1.2998 14.8031 1.2998C14.8052 1.2998 14.8074 1.2998 14.8096 1.2998C14.8117 1.2998 14.8139 1.2998 14.816 1.2998C14.8182 1.2998 14.8203 1.2998 14.8224 1.2998C14.8246 1.2998 14.8267 1.2998 14.8288 1.2998C14.8309 1.2998 14.833 1.2998 14.8351 1.2998C14.8372 1.2998 14.8393 1.2998 14.8414 1.2998C14.8435 1.2998 14.8455 1.2998 14.8476 1.2998C14.8497 1.2998 14.8517 1.2998 14.8538 1.2998C14.8558 1.2998 14.8579 1.2998 14.8599 1.2998C14.8619 1.2998 14.8639 1.2998 14.866 1.2998C14.868 1.2998 14.87 1.2998 14.872 1.2998C14.874 1.2998 14.876 1.2998 14.878 1.2998C14.88 1.2998 14.8819 1.2998 14.8839 1.2998C14.8859 1.2998 14.8878 1.2998 14.8898 1.2998C14.8917 1.2998 14.8937 1.2998 14.8956 1.2998C14.8975 1.2998 14.8995 1.2998 14.9014 1.2998C14.9033 1.2998 14.9052 1.2998 14.9071 1.2998C14.909 1.2998 14.9109 1.2998 14.9128 1.2998C14.9147 1.2998 14.9166 1.2998 14.9184 1.2998C14.9203 1.2998 14.9222 1.2998 14.924 1.2998C14.9259 1.2998 14.9277 1.2998 14.9296 1.2998C14.9314 1.2998 14.9332 1.2998 14.935 1.2998C14.9369 1.2998 14.9387 1.2998 14.9405 1.2998C14.9423 1.2998 14.9441 1.2998 14.9459 1.2998C14.9476 1.2998 14.9494 1.2998 14.9512 1.2998C14.953 1.2998 14.9547 1.2998 14.9565 1.2998C14.9582 1.2998 14.96 1.2998 14.9617 1.2998C14.9634 1.2998 14.9652 1.2998 14.9669 1.2998C14.9686 1.2998 14.9703 1.2998 14.972 1.2998C14.9737 1.2998 14.9754 1.2998 14.9771 1.2998C14.9788 1.2998 14.9804 1.2998 14.9821 1.2998C14.9838 1.2998 14.9854 1.2998 14.9871 1.2998C14.9887 1.2998 14.9904 1.2998 14.992 1.2998C14.9936 1.2998 14.9953 1.2998 14.9969 1.2998C14.9985 1.2998 15.0001 1.2998 15.0017 1.2998C15.0033 1.2998 15.0049 1.2998 15.0064 1.2998C15.008 1.2998 15.0096 1.2998 15.0112 1.2998C15.0127 1.2998 15.0143 1.2998 15.0158 1.2998C15.0173 1.2998 15.0189 1.2998 15.0204 1.2998C15.0219 1.2998 15.0234 1.2998 15.025 1.2998C15.0265 1.2998 15.028 1.2998 15.0295 1.2998C15.0309 1.2998 15.0324 1.2998 15.0339 1.2998C15.0354 1.2998 15.0368 1.2998 15.0383 1.2998C15.0397 1.2998 15.0412 1.2998 15.0426 1.2998C15.044 1.2998 15.0455 1.2998 15.0469 1.2998C15.0483 1.2998 15.0497 1.2998 15.0511 1.2998C15.0525 1.2998 15.0539 1.2998 15.0553 1.2998C15.0567 1.2998 15.058 1.2998 15.0594 1.2998C15.0608 1.2998 15.0621 1.2998 15.0635 1.2998C15.0648 1.2998 15.0661 1.2998 15.0675 1.2998C15.0688 1.2998 15.0701 1.2998 15.0714 1.2998C15.0727 1.2998 15.074 1.2998 15.0753 1.2998C15.0766 1.2998 15.0779 1.2998 15.0791 1.2998C15.0804 1.2998 15.0817 1.2998 15.0829 1.2998C15.0842 1.2998 15.0854 1.2998 15.0867 1.2998C15.0879 1.2998 15.0891 1.2998 15.0903 1.2998C15.0915 1.2998 15.0927 1.2998 15.0939 1.2998C15.0951 1.2998 15.0963 1.2998 15.0975 1.2998C15.0987 1.2998 15.0998 1.2998 15.101 1.2998C15.1021 1.2998 15.1033 1.2998 15.1044 1.2998C15.1056 1.2998 15.1067 1.2998 15.1078 1.2998C15.1089 1.2998 15.11 1.2998 15.1111 1.2998C15.1122 1.2998 15.1133 1.2998 15.1144 1.2998C15.1155 1.2998 15.1166 1.2998 15.1176 1.2998C15.1187 1.2998 15.1197 1.2998 15.1208 1.2998C15.1218 1.2998 15.1229 1.2998 15.1239 1.2998C15.1249 1.2998 15.1259 1.2998 15.1269 1.2998C15.1279 1.2998 15.1289 1.2998 15.1299 1.2998C15.1309 1.2998 15.1319 1.2998 15.1328 1.2998C15.1338 1.2998 15.1347 1.2998 15.1357 1.2998C15.1366 1.2998 15.1376 1.2998 15.1385 1.2998C15.1394 1.2998 15.1403 1.2998 15.1412 1.2998C15.1421 1.2998 15.143 1.2998 15.1439 1.2998C15.1448 1.2998 15.1457 1.2998 15.1465 1.2998C15.1474 1.2998 15.1483 1.2998 15.1491 1.2998C15.15 1.2998 15.1508 1.2998 15.1516 1.2998C15.1524 1.2998 15.1533 1.2998 15.1541 1.2998C15.1549 1.2998 15.1557 1.2998 15.1564 1.2998C15.1572 1.2998 15.158 1.2998 15.1588 1.2998C15.1595 1.2998 15.1603 1.2998 15.161 1.2998C15.1618 1.2998 15.1625 1.2998 15.1632 1.2998C15.164 1.2998 15.1647 1.2998 15.1654 1.2998C15.1661 1.2998 15.1668 1.2998 15.1675 1.2998C15.1682 1.2998 15.1688 1.2998 15.1695 1.2998C15.1702 1.2998 15.1708 1.2998 15.1714 1.2998C15.1721 1.2998 15.1727 1.2998 15.1733 1.2998C15.174 1.2998 15.1746 1.2998 15.1752 1.2998C15.1758 1.2998 15.1764 1.2998 15.177 1.2998C15.1775 1.2998 15.1781 1.2998 15.1787 1.2998C15.1792 1.2998 15.1798 1.2998 15.1803 1.2998C15.1809 1.2998 15.1814 1.2998 15.1819 1.2998C15.1824 1.2998 15.1829 1.2998 15.1834 1.2998C15.1839 1.2998 15.1844 1.2998 15.1849 1.2998C15.1854 1.2998 15.1858 1.2998 15.1863 1.2998C15.1867 1.2998 15.1872 1.2998 15.1876 1.2998C15.1881 1.2998 15.1885 1.2998 15.1889 1.2998C15.1893 1.2998 15.1897 1.2998 15.1901 1.2998C15.1905 1.2998 15.1909 1.2998 15.1912 1.2998C15.1916 1.2998 15.192 1.2998 15.1923 1.2998C15.1927 1.2998 15.193 1.2998 15.1933 1.2998C15.1937 1.2998 15.194 1.2998 15.1943 1.2998C15.1946 1.2998 15.1949 1.2998 15.1952 1.2998C15.1955 1.2998 15.1957 1.2998 15.196 1.2998C15.1963 1.2998 15.1965 1.2998 15.1968 1.2998C15.197 1.2998 15.1972 1.2998 15.1975 1.2998C15.1977 1.2998 15.1979 1.2998 15.1981 1.2998C15.1983 1.2998 15.1985 1.2998 15.1987 1.2998C15.1988 1.2998 15.199 1.2998 15.1992 1.2998C15.1993 1.2998 15.1994 1.2998 15.1996 1.2998C15.1997 1.2998 15.1998 1.2998 15.1999 1.2998C15.2001 1.2998 15.2002 1.2998 15.2002 1.2998C15.2003 1.2998 15.2004 1.2998 15.2005 1.2998C15.2005 1.2998 15.2006 1.2998 15.2006 1.2998C15.2007 1.2998 15.2007 1.2998 15.2007 1.2998C15.2008 1.2998 15.2008 1.2998 15.2008 0.799805C15.2008 0.299805 15.2008 0.299805 15.2007 0.299805C15.2007 0.299805 15.2007 0.299805 15.2006 0.299805C15.2006 0.299805 15.2005 0.299805 15.2005 0.299805C15.2004 0.299805 15.2003 0.299805 15.2002 0.299805C15.2002 0.299805 15.2001 0.299805 15.1999 0.299805C15.1998 0.299805 15.1997 0.299805 15.1996 0.299805C15.1994 0.299805 15.1993 0.299805 15.1992 0.299805C15.199 0.299805 15.1988 0.299805 15.1987 0.299805C15.1985 0.299805 15.1983 0.299805 15.1981 0.299805C15.1979 0.299805 15.1977 0.299805 15.1975 0.299805C15.1972 0.299805 15.197 0.299805 15.1968 0.299805C15.1965 0.299805 15.1963 0.299805 15.196 0.299805C15.1957 0.299805 15.1955 0.299805 15.1952 0.299805C15.1949 0.299805 15.1946 0.299805 15.1943 0.299805C15.194 0.299805 15.1937 0.299805 15.1933 0.299805C15.193 0.299805 15.1927 0.299805 15.1923 0.299805C15.192 0.299805 15.1916 0.299805 15.1912 0.299805C15.1909 0.299805 15.1905 0.299805 15.1901 0.299805C15.1897 0.299805 15.1893 0.299805 15.1889 0.299805C15.1885 0.299805 15.1881 0.299805 15.1876 0.299805C15.1872 0.299805 15.1867 0.299805 15.1863 0.299805C15.1858 0.299805 15.1854 0.299805 15.1849 0.299805C15.1844 0.299805 15.1839 0.299805 15.1834 0.299805C15.1829 0.299805 15.1824 0.299805 15.1819 0.299805C15.1814 0.299805 15.1809 0.299805 15.1803 0.299805C15.1798 0.299805 15.1792 0.299805 15.1787 0.299805C15.1781 0.299805 15.1775 0.299805 15.177 0.299805C15.1764 0.299805 15.1758 0.299805 15.1752 0.299805C15.1746 0.299805 15.174 0.299805 15.1733 0.299805C15.1727 0.299805 15.1721 0.299805 15.1714 0.299805C15.1708 0.299805 15.1702 0.299805 15.1695 0.299805C15.1688 0.299805 15.1682 0.299805 15.1675 0.299805C15.1668 0.299805 15.1661 0.299805 15.1654 0.299805C15.1647 0.299805 15.164 0.299805 15.1632 0.299805C15.1625 0.299805 15.1618 0.299805 15.161 0.299805C15.1603 0.299805 15.1595 0.299805 15.1588 0.299805C15.158 0.299805 15.1572 0.299805 15.1564 0.299805C15.1557 0.299805 15.1549 0.299805 15.1541 0.299805C15.1533 0.299805 15.1524 0.299805 15.1516 0.299805C15.1508 0.299805 15.15 0.299805 15.1491 0.299805C15.1483 0.299805 15.1474 0.299805 15.1465 0.299805C15.1457 0.299805 15.1448 0.299805 15.1439 0.299805C15.143 0.299805 15.1421 0.299805 15.1412 0.299805C15.1403 0.299805 15.1394 0.299805 15.1385 0.299805C15.1376 0.299805 15.1366 0.299805 15.1357 0.299805C15.1347 0.299805 15.1338 0.299805 15.1328 0.299805C15.1319 0.299805 15.1309 0.299805 15.1299 0.299805C15.1289 0.299805 15.1279 0.299805 15.1269 0.299805C15.1259 0.299805 15.1249 0.299805 15.1239 0.299805C15.1229 0.299805 15.1218 0.299805 15.1208 0.299805C15.1197 0.299805 15.1187 0.299805 15.1176 0.299805C15.1166 0.299805 15.1155 0.299805 15.1144 0.299805C15.1133 0.299805 15.1122 0.299805 15.1111 0.299805C15.11 0.299805 15.1089 0.299805 15.1078 0.299805C15.1067 0.299805 15.1056 0.299805 15.1044 0.299805C15.1033 0.299805 15.1021 0.299805 15.101 0.299805C15.0998 0.299805 15.0987 0.299805 15.0975 0.299805C15.0963 0.299805 15.0951 0.299805 15.0939 0.299805C15.0927 0.299805 15.0915 0.299805 15.0903 0.299805C15.0891 0.299805 15.0879 0.299805 15.0867 0.299805C15.0854 0.299805 15.0842 0.299805 15.0829 0.299805C15.0817 0.299805 15.0804 0.299805 15.0791 0.299805C15.0779 0.299805 15.0766 0.299805 15.0753 0.299805C15.074 0.299805 15.0727 0.299805 15.0714 0.299805C15.0701 0.299805 15.0688 0.299805 15.0675 0.299805C15.0661 0.299805 15.0648 0.299805 15.0635 0.299805C15.0621 0.299805 15.0608 0.299805 15.0594 0.299805C15.058 0.299805 15.0567 0.299805 15.0553 0.299805C15.0539 0.299805 15.0525 0.299805 15.0511 0.299805C15.0497 0.299805 15.0483 0.299805 15.0469 0.299805C15.0455 0.299805 15.044 0.299805 15.0426 0.299805C15.0412 0.299805 15.0397 0.299805 15.0383 0.299805C15.0368 0.299805 15.0354 0.299805 15.0339 0.299805C15.0324 0.299805 15.0309 0.299805 15.0295 0.299805C15.028 0.299805 15.0265 0.299805 15.025 0.299805C15.0234 0.299805 15.0219 0.299805 15.0204 0.299805C15.0189 0.299805 15.0173 0.299805 15.0158 0.299805C15.0143 0.299805 15.0127 0.299805 15.0112 0.299805C15.0096 0.299805 15.008 0.299805 15.0064 0.299805C15.0049 0.299805 15.0033 0.299805 15.0017 0.299805C15.0001 0.299805 14.9985 0.299805 14.9969 0.299805C14.9953 0.299805 14.9936 0.299805 14.992 0.299805C14.9904 0.299805 14.9887 0.299805 14.9871 0.299805C14.9854 0.299805 14.9838 0.299805 14.9821 0.299805C14.9804 0.299805 14.9788 0.299805 14.9771 0.299805C14.9754 0.299805 14.9737 0.299805 14.972 0.299805C14.9703 0.299805 14.9686 0.299805 14.9669 0.299805C14.9652 0.299805 14.9634 0.299805 14.9617 0.299805C14.96 0.299805 14.9582 0.299805 14.9565 0.299805C14.9547 0.299805 14.953 0.299805 14.9512 0.299805C14.9494 0.299805 14.9476 0.299805 14.9459 0.299805C14.9441 0.299805 14.9423 0.299805 14.9405 0.299805C14.9387 0.299805 14.9369 0.299805 14.935 0.299805C14.9332 0.299805 14.9314 0.299805 14.9296 0.299805C14.9277 0.299805 14.9259 0.299805 14.924 0.299805C14.9222 0.299805 14.9203 0.299805 14.9184 0.299805C14.9166 0.299805 14.9147 0.299805 14.9128 0.299805C14.9109 0.299805 14.909 0.299805 14.9071 0.299805C14.9052 0.299805 14.9033 0.299805 14.9014 0.299805C14.8995 0.299805 14.8975 0.299805 14.8956 0.299805C14.8937 0.299805 14.8917 0.299805 14.8898 0.299805C14.8878 0.299805 14.8859 0.299805 14.8839 0.299805C14.8819 0.299805 14.88 0.299805 14.878 0.299805C14.876 0.299805 14.874 0.299805 14.872 0.299805C14.87 0.299805 14.868 0.299805 14.866 0.299805C14.8639 0.299805 14.8619 0.299805 14.8599 0.299805C14.8579 0.299805 14.8558 0.299805 14.8538 0.299805C14.8517 0.299805 14.8497 0.299805 14.8476 0.299805C14.8455 0.299805 14.8435 0.299805 14.8414 0.299805C14.8393 0.299805 14.8372 0.299805 14.8351 0.299805C14.833 0.299805 14.8309 0.299805 14.8288 0.299805C14.8267 0.299805 14.8246 0.299805 14.8224 0.299805C14.8203 0.299805 14.8182 0.299805 14.816 0.299805C14.8139 0.299805 14.8117 0.299805 14.8096 0.299805C14.8074 0.299805 14.8052 0.299805 14.8031 0.299805C14.8009 0.299805 14.7987 0.299805 14.7965 0.299805C14.7943 0.299805 14.7921 0.299805 14.7899 0.299805C14.7877 0.299805 14.7855 0.299805 14.7833 0.299805C14.7811 0.299805 14.7788 0.299805 14.7766 0.299805C14.7744 0.299805 14.7721 0.299805 14.7699 0.299805C14.7676 0.299805 14.7654 0.299805 14.7631 0.299805C14.7608 0.299805 14.7586 0.299805 14.7563 0.299805C14.754 0.299805 14.7517 0.299805 14.7494 0.299805C14.7471 0.299805 14.7448 0.299805 14.7425 0.299805C14.7402 0.299805 14.7379 0.299805 14.7355 0.299805C14.7332 0.299805 14.7309 0.299805 14.7285 0.299805C14.7262 0.299805 14.7238 0.299805 14.7215 0.299805C14.7191 0.299805 14.7168 0.299805 14.7144 0.299805C14.712 0.299805 14.7096 0.299805 14.7072 0.299805C14.7049 0.299805 14.7025 0.299805 14.7001 0.299805C14.6977 0.299805 14.6953 0.299805 14.6928 0.299805C14.6904 0.299805 14.688 0.299805 14.6856 0.299805C14.6831 0.299805 14.6807 0.299805 14.6783 0.299805C14.6758 0.299805 14.6734 0.299805 14.6709 0.299805C14.6684 0.299805 14.666 0.299805 14.6635 0.299805C14.661 0.299805 14.6586 0.299805 14.6561 0.299805C14.6536 0.299805 14.6511 0.299805 14.6486 0.299805C14.6461 0.299805 14.6436 0.299805 14.6411 0.299805C14.6385 0.299805 14.636 0.299805 14.6335 0.299805C14.631 0.299805 14.6284 0.299805 14.6259 0.299805C14.6233 0.299805 14.6208 0.299805 14.6182 0.299805C14.6157 0.299805 14.6131 0.299805 14.6105 0.299805C14.608 0.299805 14.6054 0.299805 14.6028 0.299805C14.6002 0.299805 14.5976 0.299805 14.595 0.299805C14.5924 0.299805 14.5898 0.299805 14.5872 0.299805C14.5846 0.299805 14.582 0.299805 14.5793 0.299805C14.5767 0.299805 14.5741 0.299805 14.5714 0.299805C14.5688 0.299805 14.5661 0.299805 14.5635 0.299805C14.5608 0.299805 14.5582 0.299805 14.5555 0.299805C14.5528 0.299805 14.5502 0.299805 14.5475 0.299805C14.5448 0.299805 14.5421 0.299805 14.5394 0.299805C14.5367 0.299805 14.534 0.299805 14.5313 0.299805C14.5286 0.299805 14.5259 0.299805 14.5232 0.299805C14.5204 0.299805 14.5177 0.299805 14.515 0.299805C14.5123 0.299805 14.5095 0.299805 14.5068 0.299805C14.504 0.299805 14.5013 0.299805 14.4985 0.299805C14.4957 0.299805 14.493 0.299805 14.4902 0.299805C14.4874 0.299805 14.4846 0.299805 14.4819 0.299805C14.4791 0.299805 14.4763 0.299805 14.4735 0.299805C14.4707 0.299805 14.4679 0.299805 14.4651 0.299805C14.4622 0.299805 14.4594 0.299805 14.4566 0.299805C14.4538 0.299805 14.4509 0.299805 14.4481 0.299805C14.4453 0.299805 14.4424 0.299805 14.4396 0.299805C14.4367 0.299805 14.4339 0.299805 14.431 0.299805C14.4281 0.299805 14.4253 0.299805 14.4224 0.299805C14.4195 0.299805 14.4166 0.299805 14.4137 0.299805C14.4109 0.299805 14.408 0.299805 14.4051 0.299805C14.4022 0.299805 14.3992 0.299805 14.3963 0.299805C14.3934 0.299805 14.3905 0.299805 14.3876 0.299805C14.3846 0.299805 14.3817 0.299805 14.3788 0.299805C14.3758 0.299805 14.3729 0.299805 14.3699 0.299805C14.367 0.299805 14.364 0.299805 14.3611 0.299805C14.3581 0.299805 14.3551 0.299805 14.3522 0.299805C14.3492 0.299805 14.3462 0.299805 14.3432 0.299805C14.3402 0.299805 14.3373 0.299805 14.3343 0.299805C14.3313 0.299805 14.3282 0.299805 14.3252 0.299805C14.3222 0.299805 14.3192 0.299805 14.3162 0.299805C14.3132 0.299805 14.3101 0.299805 14.3071 0.299805C14.3041 0.299805 14.301 0.299805 14.298 0.299805C14.2949 0.299805 14.2919 0.299805 14.2888 0.299805C14.2858 0.299805 14.2827 0.299805 14.2796 0.299805C14.2766 0.299805 14.2735 0.299805 14.2704 0.299805C14.2673 0.299805 14.2642 0.299805 14.2612 0.299805C14.2581 0.299805 14.255 0.299805 14.2519 0.299805C14.2488 0.299805 14.2456 0.299805 14.2425 0.299805C14.2394 0.299805 14.2363 0.299805 14.2332 0.299805C14.23 0.299805 14.2269 0.299805 14.2238 0.299805C14.2206 0.299805 14.2175 0.299805 14.2143 0.299805C14.2112 0.299805 14.208 0.299805 14.2049 0.299805C14.2017 0.299805 14.1986 0.299805 14.1954 0.299805C14.1922 0.299805 14.189 0.299805 14.1859 0.299805C14.1827 0.299805 14.1795 0.299805 14.1763 0.299805C14.1731 0.299805 14.1699 0.299805 14.1667 0.299805C14.1635 0.299805 14.1603 0.299805 14.1571 0.299805C14.1538 0.299805 14.1506 0.299805 14.1474 0.299805C14.1442 0.299805 14.1409 0.299805 14.1377 0.299805C14.1345 0.299805 14.1312 0.299805 14.128 0.299805C14.1247 0.299805 14.1215 0.299805 14.1182 0.299805C14.115 0.299805 14.1117 0.299805 14.1084 0.299805C14.1052 0.299805 14.1019 0.299805 14.0986 0.299805C14.0953 0.299805 14.0921 0.299805 14.0888 0.299805C14.0855 0.299805 14.0822 0.299805 14.0789 0.299805C14.0756 0.299805 14.0723 0.299805 14.069 0.299805C14.0657 0.299805 14.0623 0.299805 14.059 0.299805C14.0557 0.299805 14.0524 0.299805 14.049 0.299805C14.0457 0.299805 14.0424 0.299805 14.039 0.299805C14.0357 0.299805 14.0324 0.299805 14.029 0.299805C14.0256 0.299805 14.0223 0.299805 14.0189 0.299805C14.0156 0.299805 14.0122 0.299805 14.0088 0.299805C14.0055 0.299805 14.0021 0.299805 13.9987 0.299805C13.9953 0.299805 13.9919 0.299805 13.9886 0.299805C13.9852 0.299805 13.9818 0.299805 13.9784 0.299805C13.975 0.299805 13.9716 0.299805 13.9682 0.299805C13.9647 0.299805 13.9613 0.299805 13.9579 0.299805C13.9545 0.299805 13.9511 0.299805 13.9476 0.299805C13.9442 0.299805 13.9408 0.299805 13.9373 0.299805C13.9339 0.299805 13.9304 0.299805 13.927 0.299805C13.9236 0.299805 13.9201 0.299805 13.9166 0.299805C13.9132 0.299805 13.9097 0.299805 13.9063 0.299805C13.9028 0.299805 13.8993 0.299805 13.8958 0.299805C13.8924 0.299805 13.8889 0.299805 13.8854 0.299805C13.8819 0.299805 13.8784 0.299805 13.8749 0.299805C13.8714 0.299805 13.8679 0.299805 13.8644 0.299805C13.8609 0.299805 13.8574 0.299805 13.8539 0.299805C13.8504 0.299805 13.8469 0.299805 13.8433 0.299805C13.8398 0.299805 13.8363 0.299805 13.8328 0.299805C13.8292 0.299805 13.8257 0.299805 13.8222 0.299805C13.8186 0.299805 13.8151 0.299805 13.8115 0.299805C13.808 0.299805 13.8044 0.299805 13.8009 0.299805C13.7973 0.299805 13.7938 0.299805 13.7902 0.299805C13.7866 0.299805 13.783 0.299805 13.7795 0.299805C13.7759 0.299805 13.7723 0.299805 13.7687 0.299805C13.7652 0.299805 13.7616 0.299805 13.758 0.299805C13.7544 0.299805 13.7508 0.299805 13.7472 0.299805C13.7436 0.299805 13.74 0.299805 13.7364 0.299805C13.7328 0.299805 13.7291 0.299805 13.7255 0.299805C13.7219 0.299805 13.7183 0.299805 13.7147 0.299805C13.711 0.299805 13.7074 0.299805 13.7038 0.299805C13.7001 0.299805 13.6965 0.299805 13.6929 0.299805C13.6892 0.299805 13.6856 0.299805 13.6819 0.299805C13.6783 0.299805 13.6746 0.299805 13.671 0.299805C13.6673 0.299805 13.6636 0.299805 13.66 0.299805C13.6563 0.299805 13.6526 0.299805 13.649 0.299805C13.6453 0.299805 13.6416 0.299805 13.6379 0.299805C13.6342 0.299805 13.6306 0.299805 13.6269 0.299805C13.6232 0.299805 13.6195 0.299805 13.6158 0.299805C13.6121 0.299805 13.6084 0.299805 13.6047 0.299805C13.601 0.299805 13.5973 0.299805 13.5936 0.299805C13.5898 0.299805 13.5861 0.299805 13.5824 0.299805C13.5787 0.299805 13.575 0.299805 13.5712 0.299805C13.5675 0.299805 13.5638 0.299805 13.56 0.299805C13.5563 0.299805 13.5526 0.299805 13.5488 0.299805C13.5451 0.299805 13.5413 0.299805 13.5376 0.299805C13.5338 0.299805 13.5301 0.299805 13.5263 0.299805C13.5226 0.299805 13.5188 0.299805 13.515 0.299805C13.5113 0.299805 13.5075 0.299805 13.5037 0.299805C13.5 0.299805 13.4962 0.299805 13.4924 0.299805C13.4886 0.299805 13.4848 0.299805 13.481 0.299805C13.4773 0.299805 13.4735 0.299805 13.4697 0.299805C13.4659 0.299805 13.4621 0.299805 13.4583 0.299805C13.4545 0.299805 13.4507 0.299805 13.4469 0.299805C13.4431 0.299805 13.4393 0.299805 13.4354 0.299805C13.4316 0.299805 13.4278 0.299805 13.424 0.299805C13.4202 0.299805 13.4163 0.299805 13.4125 0.299805C13.4087 0.299805 13.4049 0.299805 13.401 0.299805C13.3972 0.299805 13.3934 0.299805 13.3895 0.299805C13.3857 0.299805 13.3818 0.299805 13.378 0.299805C13.3741 0.299805 13.3703 0.299805 13.3664 0.299805C13.3626 0.299805 13.3587 0.299805 13.3549 0.299805C13.351 0.299805 13.3471 0.299805 13.3433 0.299805C13.3394 0.299805 13.3355 0.299805 13.3317 0.299805C13.3278 0.299805 13.3239 0.299805 13.32 0.299805C13.3162 0.299805 13.3123 0.299805 13.3084 0.299805C13.3045 0.299805 13.3006 0.299805 13.2967 0.299805C13.2928 0.299805 13.2889 0.299805 13.285 0.299805C13.2811 0.299805 13.2772 0.299805 13.2733 0.299805C13.2694 0.299805 13.2655 0.299805 13.2616 0.299805C13.2577 0.299805 13.2538 0.299805 13.2499 0.299805C13.246 0.299805 13.242 0.299805 13.2381 0.299805C13.2342 0.299805 13.2303 0.299805 13.2264 0.299805C13.2224 0.299805 13.2185 0.299805 13.2146 0.299805C13.2106 0.299805 13.2067 0.299805 13.2028 0.299805C13.1988 0.299805 13.1949 0.299805 13.1909 0.299805C13.187 0.299805 13.183 0.299805 13.1791 0.299805C13.1751 0.299805 13.1712 0.299805 13.1672 0.299805C13.1633 0.299805 13.1593 0.299805 13.1554 0.299805C13.1514 0.299805 13.1474 0.299805 13.1435 0.299805C13.1395 0.299805 13.1355 0.299805 13.1316 0.299805C13.1276 0.299805 13.1236 0.299805 13.1197 0.299805C13.1157 0.299805 13.1117 0.299805 13.1077 0.299805C13.1037 0.299805 13.0998 0.299805 13.0958 0.299805C13.0918 0.299805 13.0878 0.299805 13.0838 0.299805C13.0798 0.299805 13.0758 0.299805 13.0718 0.299805C13.0678 0.299805 13.0638 0.299805 13.0598 0.299805C13.0558 0.299805 13.0518 0.299805 13.0478 0.299805C13.0438 0.299805 13.0398 0.299805 13.0358 0.299805C13.0318 0.299805 13.0278 0.299805 13.0238 0.299805C13.0197 0.299805 13.0157 0.299805 13.0117 0.299805C13.0077 0.299805 13.0037 0.299805 12.9996 0.299805C12.9956 0.299805 12.9916 0.299805 12.9876 0.299805C12.9835 0.299805 12.9795 0.299805 12.9755 0.299805C12.9714 0.299805 12.9674 0.299805 12.9633 0.299805C12.9593 0.299805 12.9553 0.299805 12.9512 0.299805C12.9472 0.299805 12.9431 0.299805 12.9391 0.299805C12.935 0.299805 12.931 0.299805 12.9269 0.299805C12.9229 0.299805 12.9188 0.299805 12.9148 0.299805C12.9107 0.299805 12.9067 0.299805 12.9026 0.299805C12.8985 0.299805 12.8945 0.299805 12.8904 0.299805C12.8864 0.299805 12.8823 0.299805 12.8782 0.299805C12.8742 0.299805 12.8701 0.299805 12.866 0.299805C12.8619 0.299805 12.8579 0.299805 12.8538 0.299805C12.8497 0.299805 12.8456 0.299805 12.8416 0.299805C12.8375 0.299805 12.8334 0.299805 12.8293 0.299805C12.8252 0.299805 12.8211 0.299805 12.8171 0.299805C12.813 0.299805 12.8089 0.299805 12.8048 0.299805C12.8007 0.299805 12.7966 0.299805 12.7925 0.299805C12.7884 0.299805 12.7843 0.299805 12.7802 0.299805C12.7761 0.299805 12.772 0.299805 12.7679 0.299805C12.7638 0.299805 12.7597 0.299805 12.7556 0.299805C12.7515 0.299805 12.7474 0.299805 12.7433 0.299805C12.7392 0.299805 12.7351 0.299805 12.731 0.299805C12.7269 0.299805 12.7227 0.299805 12.7186 0.299805C12.7145 0.299805 12.7104 0.299805 12.7063 0.299805C12.7022 0.299805 12.698 0.299805 12.6939 0.299805C12.6898 0.299805 12.6857 0.299805 12.6815 0.299805C12.6774 0.299805 12.6733 0.299805 12.6692 0.299805C12.665 0.299805 12.6609 0.299805 12.6568 0.299805C12.6526 0.299805 12.6485 0.299805 12.6444 0.299805C12.6402 0.299805 12.6361 0.299805 12.632 0.299805C12.6278 0.299805 12.6237 0.299805 12.6196 0.299805C12.6154 0.299805 12.6113 0.299805 12.6071 0.299805C12.603 0.299805 12.5989 0.299805 12.5947 0.299805C12.5906 0.299805 12.5864 0.299805 12.5823 0.299805C12.5781 0.299805 12.574 0.299805 12.5698 0.299805C12.5657 0.299805 12.5615 0.299805 12.5574 0.299805C12.5532 0.299805 12.5491 0.299805 12.5449 0.299805C12.5408 0.299805 12.5366 0.299805 12.5324 0.299805C12.5283 0.299805 12.5241 0.299805 12.52 0.299805C12.5158 0.299805 12.5117 0.299805 12.5075 0.299805C12.5033 0.299805 12.4992 0.299805 12.495 0.299805C12.4908 0.299805 12.4867 0.299805 12.4825 0.299805C12.4783 0.299805 12.4742 0.299805 12.47 0.299805C12.4658 0.299805 12.4617 0.299805 12.4575 0.299805C12.4533 0.299805 12.4492 0.299805 12.445 0.299805C12.4408 0.299805 12.4366 0.299805 12.4325 0.299805C12.4283 0.299805 12.4241 0.299805 12.4199 0.299805C12.4158 0.299805 12.4116 0.299805 12.4074 0.299805C12.4032 0.299805 12.3991 0.299805 12.3949 0.299805C12.3907 0.299805 12.3865 0.299805 12.3823 0.299805C12.3782 0.299805 12.374 0.299805 12.3698 0.299805C12.3656 0.299805 12.3614 0.299805 12.3572 0.299805C12.3531 0.299805 12.3489 0.299805 12.3447 0.299805C12.3405 0.299805 12.3363 0.299805 12.3321 0.299805C12.3279 0.299805 12.3238 0.299805 12.3196 0.299805C12.3154 0.299805 12.3112 0.299805 12.307 0.299805C12.3028 0.299805 12.2986 0.299805 12.2944 0.299805C12.2902 0.299805 12.286 0.299805 12.2819 0.299805C12.2777 0.299805 12.2735 0.299805 12.2693 0.299805C12.2651 0.299805 12.2609 0.299805 12.2567 0.299805C12.2525 0.299805 12.2483 0.299805 12.2441 0.299805C12.2399 0.299805 12.2357 0.299805 12.2315 0.299805C12.2273 0.299805 12.2231 0.299805 12.2189 0.299805C12.2147 0.299805 12.2105 0.299805 12.2063 0.299805C12.2021 0.299805 12.1979 0.299805 12.1937 0.299805C12.1895 0.299805 12.1853 0.299805 12.1811 0.299805C12.1769 0.299805 12.1727 0.299805 12.1685 0.299805C12.1643 0.299805 12.1601 0.299805 12.1559 0.299805C12.1517 0.299805 12.1475 0.299805 12.1433 0.299805C12.1391 0.299805 12.1349 0.299805 12.1307 0.299805C12.1265 0.299805 12.1223 0.299805 12.1181 0.299805C12.1139 0.299805 12.1097 0.299805 12.1055 0.299805C12.1013 0.299805 12.0971 0.299805 12.0929 0.299805C12.0887 0.299805 12.0845 0.299805 12.0803 0.299805C12.0761 0.299805 12.0719 0.299805 12.0677 0.299805C12.0635 0.299805 12.0593 0.299805 12.0551 0.299805C12.0509 0.299805 12.0467 0.299805 12.0425 0.299805C12.0383 0.299805 12.0341 0.299805 12.0299 0.299805C12.0257 0.299805 12.0215 0.299805 12.0172 0.299805C12.013 0.299805 12.0088 0.299805 12.0046 0.299805C12.0004 0.299805 11.9962 0.299805 11.992 0.299805C11.9878 0.299805 11.9836 0.299805 11.9794 0.299805C11.9752 0.299805 11.971 0.299805 11.9668 0.299805C11.9626 0.299805 11.9584 0.299805 11.9542 0.299805C11.95 0.299805 11.9458 0.299805 11.9416 0.299805C11.9374 0.299805 11.9332 0.299805 11.929 0.299805C11.9248 0.299805 11.9206 0.299805 11.9164 0.299805C11.9122 0.299805 11.908 0.299805 11.9038 0.299805C11.8996 0.299805 11.8954 0.299805 11.8912 0.299805C11.887 0.299805 11.8828 0.299805 11.8786 0.299805C11.8744 0.299805 11.8702 0.299805 11.866 0.299805C11.8618 0.299805 11.8576 0.299805 11.8534 0.299805C11.8492 0.299805 11.845 0.299805 11.8408 0.299805C11.8366 0.299805 11.8324 0.299805 11.8282 0.299805C11.824 0.299805 11.8198 0.299805 11.8156 0.299805C11.8114 0.299805 11.8072 0.299805 11.803 0.299805C11.7988 0.299805 11.7947 0.299805 11.7905 0.299805C11.7863 0.299805 11.7821 0.299805 11.7779 0.299805C11.7737 0.299805 11.7695 0.299805 11.7653 0.299805C11.7611 0.299805 11.7569 0.299805 11.7527 0.299805C11.7486 0.299805 11.7444 0.299805 11.7402 0.299805C11.736 0.299805 11.7318 0.299805 11.7276 0.299805C11.7234 0.299805 11.7192 0.299805 11.7151 0.299805C11.7109 0.299805 11.7067 0.299805 11.7025 0.299805C11.6983 0.299805 11.6941 0.299805 11.69 0.299805C11.6858 0.299805 11.6816 0.299805 11.6774 0.299805C11.6732 0.299805 11.6691 0.299805 11.6649 0.299805C11.6607 0.299805 11.6565 0.299805 11.6524 0.299805C11.6482 0.299805 11.644 0.299805 11.6398 0.299805C11.6357 0.299805 11.6315 0.299805 11.6273 0.299805C11.6231 0.299805 11.619 0.299805 11.6148 0.299805C11.6106 0.299805 11.6064 0.299805 11.6023 0.299805C11.5981 0.299805 11.5939 0.299805 11.5898 0.299805C11.5856 0.299805 11.5814 0.299805 11.5773 0.299805C11.5731 0.299805 11.569 0.299805 11.5648 0.299805C11.5606 0.299805 11.5565 0.299805 11.5523 0.299805C11.5481 0.299805 11.544 0.299805 11.5398 0.299805C11.5357 0.299805 11.5315 0.299805 11.5274 0.299805C11.5232 0.299805 11.519 0.299805 11.5149 0.299805C11.5107 0.299805 11.5066 0.299805 11.5024 0.299805C11.4983 0.299805 11.4941 0.299805 11.49 0.299805C11.4858 0.299805 11.4817 0.299805 11.4776 0.299805C11.4734 0.299805 11.4693 0.299805 11.4651 0.299805C11.461 0.299805 11.4568 0.299805 11.4527 0.299805C11.4486 0.299805 11.4444 0.299805 11.4403 0.299805C11.4361 0.299805 11.432 0.299805 11.4279 0.299805C11.4237 0.299805 11.4196 0.299805 11.4155 0.299805C11.4113 0.299805 11.4072 0.299805 11.4031 0.299805C11.399 0.299805 11.3948 0.299805 11.3907 0.299805C11.3866 0.299805 11.3824 0.299805 11.3783 0.299805C11.3742 0.299805 11.3701 0.299805 11.366 0.299805C11.3618 0.299805 11.3577 0.299805 11.3536 0.299805C11.3495 0.299805 11.3454 0.299805 11.3413 0.299805C11.3372 0.299805 11.333 0.299805 11.3289 0.299805C11.3248 0.299805 11.3207 0.299805 11.3166 0.299805C11.3125 0.299805 11.3084 0.299805 11.3043 0.299805C11.3002 0.299805 11.2961 0.299805 11.292 0.299805C11.2879 0.299805 11.2838 0.299805 11.2797 0.299805C11.2756 0.299805 11.2715 0.299805 11.2674 0.299805C11.2633 0.299805 11.2592 0.299805 11.2551 0.299805C11.2511 0.299805 11.247 0.299805 11.2429 0.299805C11.2388 0.299805 11.2347 0.299805 11.2306 0.299805C11.2266 0.299805 11.2225 0.299805 11.2184 0.299805C11.2143 0.299805 11.2102 0.299805 11.2062 0.299805C11.2021 0.299805 11.198 0.299805 11.194 0.299805C11.1899 0.299805 11.1858 0.299805 11.1818 0.299805C11.1777 0.299805 11.1736 0.299805 11.1696 0.299805C11.1655 0.299805 11.1614 0.299805 11.1574 0.299805C11.1533 0.299805 11.1493 0.299805 11.1452 0.299805C11.1412 0.299805 11.1371 0.299805 11.1331 0.299805C11.129 0.299805 11.125 0.299805 11.1209 0.299805C11.1169 0.299805 11.1128 0.299805 11.1088 0.299805C11.1048 0.299805 11.1007 0.299805 11.0967 0.299805C11.0927 0.299805 11.0886 0.299805 11.0846 0.299805C11.0806 0.299805 11.0765 0.299805 11.0725 0.299805C11.0685 0.299805 11.0645 0.299805 11.0604 0.299805C11.0564 0.299805 11.0524 0.299805 11.0484 0.299805C11.0444 0.299805 11.0403 0.299805 11.0363 0.299805C11.0323 0.299805 11.0283 0.299805 11.0243 0.299805C11.0203 0.299805 11.0163 0.299805 11.0123 0.299805C11.0083 0.299805 11.0043 0.299805 11.0003 0.299805C10.9963 0.299805 10.9923 0.299805 10.9883 0.299805C10.9843 0.299805 10.9803 0.299805 10.9763 0.299805C10.9723 0.299805 10.9683 0.299805 10.9644 0.299805C10.9604 0.299805 10.9564 0.299805 10.9524 0.299805C10.9484 0.299805 10.9445 0.299805 10.9405 0.299805C10.9365 0.299805 10.9326 0.299805 10.9286 0.299805C10.9246 0.299805 10.9207 0.299805 10.9167 0.299805C10.9127 0.299805 10.9088 0.299805 10.9048 0.299805C10.9009 0.299805 10.8969 0.299805 10.893 0.299805C10.889 0.299805 10.8851 0.299805 10.8811 0.299805C10.8772 0.299805 10.8732 0.299805 10.8693 0.299805C10.8653 0.299805 10.8614 0.299805 10.8575 0.299805C10.8535 0.299805 10.8496 0.299805 10.8457 0.299805C10.8417 0.299805 10.8378 0.299805 10.8339 0.299805C10.83 0.299805 10.8261 0.299805 10.8221 0.299805C10.8182 0.299805 10.8143 0.299805 10.8104 0.299805C10.8065 0.299805 10.8026 0.299805 10.7987 0.299805C10.7948 0.299805 10.7909 0.299805 10.787 0.299805C10.7831 0.299805 10.7792 0.299805 10.7753 0.299805C10.7714 0.299805 10.7675 0.299805 10.7636 0.299805C10.7597 0.299805 10.7558 0.299805 10.7519 0.299805C10.7481 0.299805 10.7442 0.299805 10.7403 0.299805C10.7364 0.299805 10.7326 0.299805 10.7287 0.299805C10.7248 0.299805 10.721 0.299805 10.7171 0.299805C10.7132 0.299805 10.7094 0.299805 10.7055 0.299805C10.7017 0.299805 10.6978 0.299805 10.694 0.299805C10.6901 0.299805 10.6863 0.299805 10.6824 0.299805C10.6786 0.299805 10.6747 0.299805 10.6709 0.299805C10.6671 0.299805 10.6632 0.299805 10.6594 0.299805C10.6556 0.299805 10.6517 0.299805 10.6479 0.299805C10.6441 0.299805 10.6403 0.299805 10.6365 0.299805C10.6326 0.299805 10.6288 0.299805 10.625 0.299805C10.6212 0.299805 10.6174 0.299805 10.6136 0.299805C10.6098 0.299805 10.606 0.299805 10.6022 0.299805C10.5984 0.299805 10.5946 0.299805 10.5908 0.299805C10.587 0.299805 10.5833 0.299805 10.5795 0.299805C10.5757 0.299805 10.5719 0.299805 10.5681 0.299805C10.5644 0.299805 10.5606 0.299805 10.5568 0.299805C10.5531 0.299805 10.5493 0.299805 10.5455 0.299805C10.5418 0.299805 10.538 0.299805 10.5343 0.299805C10.5305 0.299805 10.5268 0.299805 10.523 0.299805C10.5193 0.299805 10.5155 0.299805 10.5118 0.299805C10.508 0.299805 10.5043 0.299805 10.5006 0.299805C10.4969 0.299805 10.4931 0.299805 10.4894 0.299805C10.4857 0.299805 10.482 0.299805 10.4782 0.299805C10.4745 0.299805 10.4708 0.299805 10.4671 0.299805C10.4634 0.299805 10.4597 0.299805 10.456 0.299805C10.4523 0.299805 10.4486 0.299805 10.4449 0.299805C10.4412 0.299805 10.4375 0.299805 10.4338 0.299805C10.4302 0.299805 10.4265 0.299805 10.4228 0.299805C10.4191 0.299805 10.4154 0.299805 10.4118 0.299805C10.4081 0.299805 10.4044 0.299805 10.4008 0.299805V1.2998ZM14.7008 0.799805V5.5998H15.7008V0.799805H14.7008ZM6.75433 9.95336L15.5543 1.15336L14.8472 0.446251L6.04723 9.24625L6.75433 9.95336Z" fill="#222222"/>
</svg>
