<svg width="38" height="25" viewBox="0 0 38 25" fill="none" xmlns="http://www.w3.org/2000/svg">
<path d="M29.0996 6.85447C29.0996 4.70407 30.7892 2.97607 33.0164 2.97607C35.3204 2.97607 37.0484 4.70407 37.0484 6.85447C37.0484 9.04327 35.3204 10.7329 33.0164 10.7329C30.7508 10.7329 29.0996 9.04327 29.0996 6.85447ZM29.0996 17.8369C29.0996 15.6865 30.7892 13.9585 33.0164 13.9585C35.3204 13.9585 37.0484 15.6865 37.0484 17.8369C37.0484 19.9873 35.3204 21.7153 33.0164 21.7153C30.7508 21.7153 29.0996 19.9873 29.0996 17.8369Z" fill="#231F20"/>
<path d="M0.914062 0.134277V24.0191H24.7989V0.134277H0.914062ZM18.0021 4.08948L4.90766 17.1839V4.08948H18.0021ZM7.71086 20.0255L20.8053 6.93108V20.0255H7.71086Z" fill="#231F20"/>
</svg>
